<svg xmlns="http://www.w3.org/2000/svg" version="1.0" width="1250" height="1000" viewBox="0 0 12500 10000" style="transform: rotate(180deg) scale(-1, 1)">
  <g fill="#000000" stroke="none">
    <path d="M5335 9734 c-484 -39 -761 -84 -1120 -180 -689 -184 -1348 -503 -1909 -923 -672 -504 -1225 -1155 -1614 -1901 -316 -606 -518 -1269 -596 -1955 -38 -331 -43 -659 -15 -1050 60 -863 333 -1724 782 -2470 81 -135 230 -357 251 -374 16 -13 47 15 331 299 l313 313 -47 71 c-204 304 -419 752 -539 1126 -214 662 -281 1399 -191 2083 104 788 420 1560 903 2202 446 594 1054 1094 1721 1416 520 251 1034 393 1635 450 363 35 877 15 1220 -46 493 -89 935 -237 1358 -457 440 -227 785 -477 1145 -827 747 -727 1241 -1720 1372 -2756 9 -71 18 -140 20 -152 7 -29 65 -63 109 -63 128 0 152 229 61 580 -30 113 -32 190 -6 246 36 80 101 96 176 44 52 -36 83 -75 160 -202 73 -121 117 -168 156 -168 19 0 34 8 44 23 51 78 40 436 -21 681 -98 392 -397 1027 -702 1490 -208 317 -425 581 -716 871 -618 617 -1337 1063 -2161 1340 -417 141 -785 221 -1240 270 -134 15 -764 28 -880 19z" fill="#cd2e3c"/>
    <path d="M5280 7864 c-998 -102 -1924 -607 -2549 -1389 -444 -555 -708 -1189 -798 -1915 -21 -174 -20 -579 2 -791 56 -537 197 -983 463 -1466 31 -57 59 -103 62 -103 3 0 142 137 309 304 l305 305 -56 118 c-114 241 -196 514 -240 794 -19 124 -22 184 -23 429 0 251 3 302 23 430 86 532 300 1007 643 1422 167 202 451 454 664 590 388 247 848 408 1280 448 151 14 471 14 595 0 298 -33 586 -107 830 -213 382 -166 675 -369 966 -668 193 -199 341 -402 478 -656 168 -312 244 -559 280 -913 17 -162 35 -226 75 -269 54 -58 153 -49 198 18 27 40 30 105 8 196 -29 121 -11 245 44 304 55 58 106 31 136 -73 8 -28 19 -118 24 -201 6 -82 16 -168 22 -190 51 -180 182 -251 263 -142 17 23 22 46 24 120 4 106 -10 173 -63 299 -41 96 -44 151 -14 218 11 25 34 60 51 77 l31 33 -47 167 c-113 397 -279 755 -510 1098 -244 362 -609 729 -971 977 -486 333 -1022 542 -1600 623 -274 38 -641 46 -905 19z" fill="#154694"/>
    <path d="M4930 5758 l0 -1093 363 363 c199 199 367 362 372 362 6 0 169 -162 364 -360 194 -198 357 -360 362 -360 5 0 8 466 7 1088 l-3 1087 -732 3 -733 2 0 -1092z m345 637 l0 -200 -83 -3 c-53 -2 -89 1 -98 9 -19 16 -21 368 -2 387 9 9 40 12 98 10 l85 -3 0 -200z m910 -540 l0 -200 -89 -3 c-49 -2 -93 1 -97 5 -4 4 -11 87 -15 184 -9 228 -12 221 109 217 l92 -3 0 -200z m-910 -390 l0 -200 -95 0 -95 0 -3 190 c-1 104 0 195 3 203 3 9 28 12 97 10 l93 -3 0 -200z" fill="#cd2e3c"/>
    <path d="M6597 6184 c-4 -4 -7 -392 -7 -863 l0 -856 735 -735 735 -735 -1 985 0 985 -122 101 c-176 146 -779 651 -797 668 -13 11 -304 256 -392 329 -60 49 -94 79 -118 103 -14 14 -29 22 -33 18z m368 -749 l0 -200 -95 0 -95 0 -3 190 c-1 104 0 195 3 203 3 9 28 12 97 10 l93 -3 0 -200z m879 -711 c3 -9 6 -98 6 -199 0 -144 -3 -185 -14 -194 -9 -8 -45 -11 -98 -9 l-83 3 -3 195 c-1 107 0 200 2 207 4 9 31 13 95 13 72 0 90 -3 95 -16z" fill="#cd2e3c"/>
    <path d="M3986 5570 l-726 -611 0 -973 c0 -535 3 -976 6 -979 4 -4 335 321 735 722 l729 729 0 861 c0 529 -4 861 -9 861 -6 0 -336 -275 -735 -610z m479 -205 l0 -200 -95 0 -95 0 -3 190 c-1 104 0 195 3 203 3 9 28 12 97 10 l93 -3 0 -200z m-887 -724 c2 -134 -1 -198 -9 -207 -14 -17 -130 -19 -160 -4 -18 10 -19 23 -19 204 0 106 3 196 7 200 4 4 46 5 93 4 l85 -3 3 -194z m557 -266 l0 -200 -95 0 -95 0 -3 190 c-1 104 0 195 3 203 3 9 28 12 97 10 l93 -3 0 -200z" fill="#cd2e3c"/>
    <path d="M3431 2956 l-2214 -2214 23 -33 c68 -95 423 -499 439 -499 3 0 900 894 1993 1987 l1988 1988 1990 -1990 1989 -1989 32 29 c92 88 429 480 429 501 0 16 -4424 4434 -4440 4434 -8 0 -1011 -996 -2229 -2214z" fill="#cd2e3c"/>
    <path d="M11320 4504 c-135 -29 -798 -170 -1475 -313 -676 -144 -1240 -265 -1253 -271 -29 -13 -62 -68 -62 -105 0 -46 157 -771 174 -803 14 -27 68 -62 95 -62 38 0 2973 633 3001 647 19 10 44 34 55 55 l19 36 -31 147 c-18 80 -30 152 -27 158 6 15 223 62 235 50 4 -4 34 -129 65 -277 42 -195 54 -273 47 -285 -6 -9 -371 -151 -859 -333 -467 -175 -868 -325 -892 -334 -59 -22 -82 -49 -82 -95 0 -21 16 -111 35 -200 20 -89 33 -170 30 -180 -7 -21 -4 -20 -170 -54 -155 -31 -179 -45 -183 -105 -4 -50 22 -169 48 -220 37 -72 111 -119 198 -124 27 -1 49 -8 53 -17 5 -8 49 -207 100 -444 50 -236 99 -445 109 -465 24 -47 76 -95 125 -116 50 -22 157 -22 206 -2 50 21 106 74 130 121 41 79 38 109 -60 568 -50 235 -91 436 -91 447 0 14 14 27 45 42 77 37 125 115 125 203 0 48 -29 186 -46 220 -14 25 -19 27 -77 27 -34 0 -108 -11 -165 -25 -116 -28 -138 -30 -148 -13 -14 22 -62 263 -54 271 4 5 412 160 906 345 l899 337 18 36 17 36 -83 396 c-46 218 -91 407 -100 421 -27 40 -65 41 -247 2 -127 -27 -168 -32 -177 -23 -6 7 -23 71 -38 142 -31 148 -53 188 -113 205 -46 12 -14 17 -302 -46z" fill="#154694"/>
    <path d="M3928 1943 c-945 -945 -1718 -1721 -1718 -1725 0 -5 1553 -8 3450 -8 1898 0 3450 3 3450 8 0 14 -3435 3442 -3450 3442 -8 0 -788 -773 -1732 -1717z m1720 -157 c1 -286 -1 -403 -9 -412 -18 -22 -591 -20 -609 1 -9 11 -11 48 -8 133 4 93 10 134 32 197 75 221 264 401 487 466 115 33 104 73 107 -385z m232 394 c198 -44 403 -204 490 -384 48 -99 68 -180 76 -315 6 -83 4 -105 -7 -112 -23 -14 -603 -11 -617 3 -9 9 -12 113 -12 408 0 218 3 400 7 403 8 9 8 9 63 -3z m-241 -984 c8 -9 11 -99 9 -307 l-3 -294 -310 0 -310 0 -3 294 c-2 208 1 298 9 307 9 11 68 14 304 14 236 0 295 -3 304 -14z m794 2 c16 -12 17 -40 15 -308 l-3 -295 -315 0 -315 0 -3 294 c-2 208 1 298 9 307 16 19 586 21 612 2z" fill="#154694"/>
  </g>
</svg>
